PathFileType	4	(X/Y/Z)	pose_F01_0-76.trc
DataRate	CameraRate	NumFrames	NumMarkers	Units	OrigDataRate	OrigDataStartFrame	OrigNumFrames
30	30	7	21	m	30	32	76
Frame#	Time	CHip			RHip			RKnee			RAnkle			RBigToe			RSmallToe			RHeel			LHip			LKnee			LAnkle			LBigToe			LSmallToe			LHeel			Neck			Nose			RShoulder			RElbow			RWrist			LShoulder			LElbow			LWrist			
		X1	Y1	Z1	X2	Y2	Z2	X3	Y3	Z3	X4	Y4	Z4	X5	Y5	Z5	X6	Y6	Z6	X7	Y7	Z7	X8	Y8	Z8	X9	Y9	Z9	X10	Y10	Z10	X11	Y11	Z11	X12	Y12	Z12	X13	Y13	Z13	X14	Y14	Z14	X15	Y15	Z15	X16	Y16	Z16	X17	Y17	Z17	X18	Y18	Z18	X19	Y19	Z19	X20	Y20	Z20	X21	Y21	Z21	
32	1.0666666666666667	-0.22917671925584018	1.8284682620079638	-0.442004520119071	-0.24125713831698328	1.8256658001507544	-0.3867075045517803	-0.21691893907190332	1.7120106959348493	-0.47796363732948094	-0.1740763825245004	1.6146015180786764	-0.5282399710639066	-0.194154794857106	1.58038182174228	-0.5474771785289501				-0.16249066567408332	1.604455395814315	-0.5269703433666084	-0.21300177967184855	1.8316872036594136	-0.5132948883915566	-0.2120405112281694	1.7066292866145278	-0.5273835183873096	-0.17854364005499054	1.596855683658988	-0.5778651733937512	-0.19264677667703545	1.5667724285359204	-0.6124837381064197	-0.1825236522020069	1.574527361209373	-0.6362318581496134	-0.17672038138268317	1.5880603006858662	-0.5615069214677566	-1.759548092614611	1.8899898250892067	1.200272871532722	-0.23546162175973548	2.0432967166594884	-0.5610934779980195	-0.24768287819608756	1.9814543916866025	-0.40709813046416066	-0.2545801506753784	1.9073323682195873	-0.32367442295739596	-0.26021158641999503	1.8740211532363673	-0.41333258429159103	-1.6010410624091609	1.8887047000521915	0.9400446941499794	-0.18607885892581089	1.9128129364560558	-0.5695431063385571	-0.20018920162794876	1.8773974751414502	-0.6224503892553076
33	1.1	-0.23197329401537264	1.8259290570205768	-0.43360903334205286	-0.24783615784814444	1.82618701840653	-0.37448334174739895	-0.21691893907190332	1.7120106959348493	-0.47796363732948094	-0.1740763825245004	1.6146015180786764	-0.5282399710639066	-0.194154794857106	1.58038182174228	-0.5474771785289501				-0.16249066567408332	1.604455395814315	-0.5269703433666084	-0.21912266636703032	1.8257112861806288	-0.4883917417575215	-0.2120405112281694	1.7066292866145278	-0.5273835183873096	-0.17854364005499054	1.596855683658988	-0.5778651733937512	-0.19264677667703545	1.5667724285359204	-0.6124837381064197	-0.1825236522020069	1.574527361209373	-0.6362318581496134	-0.17672038138268317	1.5880603006858662	-0.5615069214677566	-1.8043272579630225	1.8919794381472683	1.2776846118399898	-0.2366982845233286	2.0436467835406873	-0.5473643687234863	-0.25226990537135785	1.986291074149284	-0.39812832185888075	-0.2632812577212613	1.9071265465303908	-0.30428539561180884	-0.2646429363198813	1.8963112786237435	-0.42374488362696344	-0.2055149244169698	1.9823259331474785	-0.556932311841867	-0.19307333496784015	1.9154409270531527	-0.5478433018523566	-0.21131967409964036	1.8967993297500196	-0.5958324098851647
34	1.1333333333333333	-0.2409171082421871	1.8238306282205068	-0.40985670058767715	-0.2501160804216937	1.8229055800493346	-0.34858933606572007	-0.21691893907190332	1.7120106959348493	-0.47796363732948094	-0.1740763825245004	1.6146015180786764	-0.5282399710639066	-0.194154794857106	1.58038182174228	-0.5474771785289501				-0.16249066567408332	1.604455395814315	-0.5269703433666084	-0.2262592496914787	1.8235413959530857	-0.4753703194134851	-0.2120405112281694	1.7066292866145278	-0.5273835183873096	-0.17854364005499054	1.596855683658988	-0.5778651733937512	-0.19264677667703545	1.5667724285359204	-0.6124837381064197	-0.1825236522020069	1.574527361209373	-0.6362318581496134	-0.17672038138268317	1.5880603006858662	-0.5615069214677566	-0.2305241735798667	1.9795018264772983	-0.4606124905908085	-0.23901891525946434	2.0420524296994307	-0.5282898952550341	-0.25288517810419536	1.9807864957243104	-0.3826961522586466	-0.2632326164020321	1.9063644340509955	-0.30378722194339	-0.26211466705075737	1.8982516681717414	-0.4089553112189353	-1.6591155387870686	1.8884402066171226	1.0357839382906646	-0.1933238305823244	1.9096918226991557	-0.5448902713350801	-0.2106865702751689	1.897606799872444	-0.5753916083692701
35	1.1666666666666667	-0.23977390210903454	1.823135652664966	-0.39740577054871074	-0.25444059949634773	1.819778588780394	-0.338341172099621	-0.21691893907190332	1.7120106959348493	-0.47796363732948094	-0.1740763825245004	1.6146015180786764	-0.5282399710639066	-0.194154794857106	1.58038182174228	-0.5474771785289501				-0.16249066567408332	1.604455395814315	-0.5269703433666084	-0.2276007109593834	1.8264575166659462	-0.46128245602735063	-0.2120405112281694	1.7066292866145278	-0.5273835183873096	-0.17854364005499054	1.596855683658988	-0.5778651733937512	-0.19264677667703545	1.5667724285359204	-0.6124837381064197	-0.1825236522020069	1.574527361209373	-0.6362318581496134	-0.17672038138268317	1.5880603006858662	-0.5615069214677566	-0.23540276560032905	1.9785369941430933	-0.45078088387751863	-0.24225331806818048	2.0404732809713835	-0.5206956235950448	-0.2555379526793351	1.9800839518350062	-0.3668579065051414	-0.2669182035774018	1.9047348696019755	-0.2994273938983194	-0.2655534175663276	1.899169897342975	-0.43615208420006696	-0.21202408240363496	1.9810148786844233	-0.5413078640967236	-0.19154186222786254	1.9134258701127207	-0.5297481912766052	-0.22022517792781027	1.8985530793417225	-0.5607308142974445
36	1.2	-0.24078870171778802	1.8210036029396777	-0.39156430752843324	-0.2554109554092157	1.8183126614755716	-0.3325917365631616	-0.21691893907190332	1.7120106959348493	-0.47796363732948094	-0.1740763825245004	1.6146015180786764	-0.5282399710639066	-0.194154794857106	1.58038182174228	-0.5474771785289501				-0.16249066567408332	1.604455395814315	-0.5269703433666084	-0.23060407515545361	1.8243304541885883	-0.4444697976249271	-0.2120405112281694	1.7066292866145278	-0.5273835183873096	-0.17854364005499054	1.596855683658988	-0.5778651733937512	-0.19264677667703545	1.5667724285359204	-0.6124837381064197	-0.1825236522020069	1.574527361209373	-0.6362318581496134	-0.17672038138268317	1.5880603006858662	-0.5615069214677566	-0.24015664261862707	1.978829179593536	-0.4407866564206005	-0.24614593684373914	2.0403875492396812	-0.5161054310189296	-0.2598724285359767	1.9808821049425804	-0.3570300460799573	-0.2677966912444143	1.9058343151719495	-0.29407946687604236	-0.27175149532545867	1.8900875512514834	-0.4368645205740672	-1.727750726877032	1.890045422770669	1.1513657856025297	-0.19676819030238166	1.9108537311790055	-0.5194761545331559	-0.22931103127303415	1.8903972978188397	-0.541922423667286
37	1.2333333333333334	-0.24232888351974566	1.819961570116884	-0.38929196960769596	-0.25607433647266387	1.8207818713211785	-0.3272184903653391	-0.21691893907190332	1.7120106959348493	-0.47796363732948094	-0.1740763825245004	1.6146015180786764	-0.5282399710639066	-0.194154794857106	1.58038182174228	-0.5474771785289501				-0.16249066567408332	1.604455395814315	-0.5269703433666084	-0.23024986081973364	1.822609838596125	-0.44422442322950684	-0.2120405112281694	1.7066292866145278	-0.5273835183873096	-0.17854364005499054	1.596855683658988	-0.5778651733937512	-0.19264677667703545	1.5667724285359204	-0.6124837381064197	-0.1825236522020069	1.574527361209373	-0.6362318581496134	-0.17672038138268317	1.5880603006858662	-0.5615069214677566	-0.24014612729728455	1.9777320243702083	-0.43203521083248264	-0.24908996741674777	2.0403435575562763	-0.5086644245978146	-0.2607325519318038	1.9794926769519168	-0.3515158824856024	-0.2694196351500085	1.9007334680346413	-0.2907226326262224	-0.27245094881897214	1.8725389563325192	-0.3942650487669025	-1.7298357494160044	1.889940342236393	1.1538679030016281	-0.20186669903359938	1.9120571489624636	-0.518494315632045	-0.22914709517099804	1.8741479156371883	-0.5188991213133822
38	1.2666666666666666	-0.24327978545002335	1.8206092211279432	-0.3840027656844446	-0.253021476735116	1.8234932662043821	-0.31729100538333976	-0.21691893907190332	1.7120106959348493	-0.47796363732948094	-0.1740763825245004	1.6146015180786764	-0.5282399710639066	-0.194154794857106	1.58038182174228	-0.5474771785289501				-0.16249066567408332	1.604455395814315	-0.5269703433666084	-0.23247367923350337	1.8221168961216927	-0.4419213605055073	-0.2120405112281694	1.7066292866145278	-0.5273835183873096	-0.17854364005499054	1.596855683658988	-0.5778651733937512	-0.19264677667703545	1.5667724285359204	-0.6124837381064197	-0.1825236522020069	1.574527361209373	-0.6362318581496134	-0.17672038138268317	1.5880603006858662	-0.5615069214677566	-0.23920527529678695	1.9772053181081675	-0.4287131804739162	-0.24929209227688004	2.037427968543741	-0.4998569866654029	-0.25850224341952893	1.9766174281242133	-0.34414320556967587	-0.2693340333257703	1.898935231978032	-0.29056257064581537	-0.2650637874222162	1.8540330570193828	-0.3683441722177304	-1.7290894130065357	1.8877125688417333	1.1524838412158167	-0.20670630065498147	1.9080545307306853	-0.5253893935423702	-0.22964615909735692	1.85396828334189	-0.5196021268965854
